<svg width="181" height="92" viewBox="0 0 181 92" fill="none" xmlns="http://www.w3.org/2000/svg">
<rect x="4.33984" y="3.21777" width="176.385" height="37.58" rx="18.79" fill="white"/>
<path d="M48.3959 22.9205V22.0141L55.6919 18.2981V19.7483L50.0953 22.4446L50.1406 22.354V22.5806L50.0953 22.49L55.6919 25.1863V26.6365L48.3959 22.9205ZM66.207 22.9205L58.9109 26.6365V25.1863L64.5076 22.49L64.4622 22.5806V22.354L64.5076 22.4446L58.9109 19.7483V18.2981L66.207 22.0141V22.9205Z" fill="#F05423"/>
<path d="M73.5271 30.2619V18.2981H74.8187V19.6803H74.9773C75.0755 19.5292 75.2114 19.3366 75.3851 19.1025C75.5626 18.8646 75.8156 18.6531 76.1442 18.4681C76.4765 18.2792 76.9259 18.1848 77.4924 18.1848C78.225 18.1848 78.8708 18.368 79.4297 18.7343C79.9886 19.1006 80.4248 19.6199 80.7382 20.2921C81.0517 20.9643 81.2084 21.7573 81.2084 22.6712C81.2084 23.5927 81.0517 24.3914 80.7382 25.0674C80.4248 25.7396 79.9905 26.2607 79.4353 26.6308C78.8802 26.9971 78.2401 27.1803 77.515 27.1803C76.9561 27.1803 76.5086 27.0878 76.1725 26.9027C75.8364 26.7139 75.5777 26.5005 75.3964 26.2626C75.2152 26.0209 75.0755 25.8208 74.9773 25.6622H74.864V30.2619H73.5271ZM74.8413 22.6486C74.8413 23.3057 74.9376 23.8854 75.1302 24.3876C75.3228 24.8861 75.6042 25.277 75.9742 25.5602C76.3443 25.8397 76.7975 25.9794 77.3338 25.9794C77.8927 25.9794 78.3591 25.8321 78.7329 25.5375C79.1106 25.2392 79.3938 24.8389 79.5826 24.3366C79.7752 23.8306 79.8715 23.2679 79.8715 22.6486C79.8715 22.0368 79.7771 21.4854 79.5883 20.9945C79.4032 20.4998 79.1219 20.1089 78.7443 19.8219C78.3704 19.5311 77.9002 19.3857 77.3338 19.3857C76.79 19.3857 76.333 19.5236 75.9629 19.7992C75.5928 20.0712 75.3134 20.4526 75.1245 20.9435C74.9357 21.4307 74.8413 21.999 74.8413 22.6486ZM89.4108 20.2468L88.2099 20.5866C88.1344 20.3865 88.023 20.192 87.8757 20.0032C87.7322 19.8106 87.5358 19.652 87.2866 19.5273C87.0373 19.4027 86.7182 19.3404 86.3292 19.3404C85.7968 19.3404 85.353 19.4631 84.998 19.7086C84.6468 19.9503 84.4712 20.2581 84.4712 20.632C84.4712 20.9643 84.5921 21.2267 84.8338 21.4193C85.0755 21.6119 85.4531 21.7724 85.9667 21.9008L87.2582 22.2181C88.0362 22.4069 88.6159 22.6958 88.9973 23.0847C89.3787 23.4699 89.5694 23.9665 89.5694 24.5746C89.5694 25.073 89.4259 25.5187 89.1389 25.9114C88.8557 26.3042 88.4591 26.6138 87.9493 26.8404C87.4395 27.067 86.8466 27.1803 86.1706 27.1803C85.2832 27.1803 84.5486 26.9877 83.9671 26.6025C83.3855 26.2173 83.0173 25.6546 82.8625 24.9144L84.1313 24.5972C84.2522 25.0655 84.4807 25.4167 84.8168 25.6508C85.1566 25.885 85.6004 26.002 86.148 26.002C86.7711 26.002 87.2658 25.8699 87.6321 25.6055C88.0022 25.3374 88.1872 25.0164 88.1872 24.6425C88.1872 24.3404 88.0815 24.0874 87.87 23.8835C87.6585 23.6758 87.3338 23.5209 86.8957 23.419L85.4455 23.0791C84.6487 22.8903 84.0634 22.5976 83.6895 22.2011C83.3194 21.8008 83.1344 21.3004 83.1344 20.6999C83.1344 20.209 83.2722 19.7747 83.5479 19.3971C83.8273 19.0194 84.2069 18.723 84.6865 18.5077C85.1699 18.2924 85.7174 18.1848 86.3292 18.1848C87.1903 18.1848 87.8662 18.3736 88.3572 18.7513C88.8519 19.1289 89.2031 19.6274 89.4108 20.2468ZM95.1165 27.1803C94.331 27.1803 93.6418 26.9934 93.0489 26.6195C92.4598 26.2456 91.9991 25.7226 91.6668 25.0504C91.3382 24.3782 91.1739 23.5927 91.1739 22.6939C91.1739 21.7875 91.3382 20.9964 91.6668 20.3204C91.9991 19.6444 92.4598 19.1195 93.0489 18.7456C93.6418 18.3718 94.331 18.1848 95.1165 18.1848C95.902 18.1848 96.5893 18.3718 97.1785 18.7456C97.7714 19.1195 98.2321 19.6444 98.5606 20.3204C98.893 20.9964 99.0591 21.7875 99.0591 22.6939C99.0591 23.5927 98.893 24.3782 98.5606 25.0504C98.2321 25.7226 97.7714 26.2456 97.1785 26.6195C96.5893 26.9934 95.902 27.1803 95.1165 27.1803ZM95.1165 25.9794C95.7132 25.9794 96.2041 25.8264 96.5893 25.5205C96.9745 25.2147 97.2597 24.8125 97.4447 24.314C97.6297 23.8155 97.7223 23.2755 97.7223 22.6939C97.7223 22.1123 97.6297 21.5704 97.4447 21.0681C97.2597 20.5659 96.9745 20.1599 96.5893 19.8502C96.2041 19.5406 95.7132 19.3857 95.1165 19.3857C94.5199 19.3857 94.0289 19.5406 93.6437 19.8502C93.2585 20.1599 92.9734 20.5659 92.7884 21.0681C92.6033 21.5704 92.5108 22.1123 92.5108 22.6939C92.5108 23.2755 92.6033 23.8155 92.7884 24.314C92.9734 24.8125 93.2585 25.2147 93.6437 25.5205C94.0289 25.8264 94.5199 25.9794 95.1165 25.9794ZM101.1 26.999V18.2981H102.391V19.6123H102.482C102.641 19.1818 102.928 18.8325 103.343 18.5644C103.758 18.2962 104.227 18.1622 104.748 18.1622C104.846 18.1622 104.969 18.164 105.116 18.1678C105.263 18.1716 105.375 18.1773 105.45 18.1848V19.5443C105.405 19.533 105.301 19.516 105.139 19.4934C104.98 19.4669 104.812 19.4537 104.635 19.4537C104.212 19.4537 103.834 19.5424 103.502 19.7199C103.173 19.8937 102.913 20.1353 102.72 20.445C102.531 20.7509 102.437 21.1002 102.437 21.493V26.999H101.1ZM109.595 27.203C109.044 27.203 108.544 27.0991 108.094 26.8914C107.645 26.6799 107.288 26.3759 107.024 25.9794C106.759 25.5791 106.627 25.0957 106.627 24.5292C106.627 24.0307 106.725 23.6267 106.922 23.317C107.118 23.0036 107.381 22.7581 107.709 22.5806C108.038 22.4031 108.4 22.2709 108.797 22.1841C109.197 22.0934 109.599 22.0217 110.003 21.9688C110.532 21.9008 110.961 21.8499 111.289 21.8159C111.621 21.7781 111.863 21.7158 112.014 21.6289C112.169 21.5421 112.246 21.391 112.246 21.1758V21.1304C112.246 20.5715 112.093 20.1372 111.788 19.8276C111.485 19.5179 111.027 19.3631 110.411 19.3631C109.773 19.3631 109.273 19.5028 108.91 19.7823C108.547 20.0617 108.293 20.36 108.145 20.6773L106.876 20.2241C107.103 19.6954 107.405 19.2838 107.783 18.9892C108.164 18.6909 108.58 18.4832 109.029 18.3661C109.482 18.2452 109.928 18.1848 110.366 18.1848C110.645 18.1848 110.966 18.2188 111.329 18.2868C111.695 18.351 112.048 18.485 112.388 18.689C112.732 18.8929 113.017 19.2007 113.243 19.6123C113.47 20.0239 113.583 20.5753 113.583 21.2664V26.999H112.246V25.8208H112.178C112.088 26.0096 111.937 26.2116 111.725 26.4269C111.514 26.6422 111.232 26.8253 110.881 26.9764C110.53 27.1274 110.101 27.203 109.595 27.203ZM109.799 26.002C110.328 26.002 110.774 25.8982 111.136 25.6905C111.502 25.4828 111.778 25.2147 111.963 24.8861C112.152 24.5576 112.246 24.212 112.246 23.8495V22.6259C112.19 22.6939 112.065 22.7562 111.873 22.8128C111.684 22.8657 111.465 22.9129 111.215 22.9545C110.97 22.9922 110.73 23.0262 110.496 23.0564C110.266 23.0829 110.079 23.1055 109.935 23.1244C109.588 23.1697 109.263 23.2434 108.961 23.3453C108.663 23.4435 108.421 23.5927 108.236 23.7928C108.055 23.9892 107.964 24.2573 107.964 24.5972C107.964 25.0617 108.136 25.4129 108.479 25.6508C108.827 25.885 109.267 26.002 109.799 26.002ZM116.998 27.0897C116.718 27.0897 116.478 26.9896 116.278 26.7894C116.078 26.5893 115.978 26.3495 115.978 26.07C115.978 25.7906 116.078 25.5508 116.278 25.3506C116.478 25.1505 116.718 25.0504 116.998 25.0504C117.277 25.0504 117.517 25.1505 117.717 25.3506C117.917 25.5508 118.017 25.7906 118.017 26.07C118.017 26.2551 117.97 26.425 117.876 26.5798C117.785 26.7347 117.662 26.8593 117.507 26.9537C117.356 27.0443 117.186 27.0897 116.998 27.0897ZM121.753 21.7649V26.999H120.416V15.3978H121.753V19.6576H121.866C122.07 19.2082 122.376 18.8514 122.784 18.587C123.196 18.3189 123.743 18.1848 124.427 18.1848C125.02 18.1848 125.539 18.3038 125.985 18.5417C126.43 18.7758 126.776 19.1365 127.021 19.6236C127.271 20.107 127.395 20.7226 127.395 21.4703V26.999H126.058V21.561C126.058 20.8699 125.879 20.3355 125.52 19.9579C125.165 19.5764 124.672 19.3857 124.042 19.3857C123.604 19.3857 123.211 19.4782 122.863 19.6633C122.52 19.8483 122.248 20.1184 122.048 20.4733C121.851 20.8283 121.753 21.2588 121.753 21.7649ZM133.625 18.2981V19.431H129.116V18.2981H133.625ZM130.43 16.2135H131.767V24.5066C131.767 24.8842 131.822 25.1675 131.931 25.3563C132.044 25.5413 132.188 25.6659 132.362 25.7301C132.539 25.7906 132.726 25.8208 132.922 25.8208C133.07 25.8208 133.191 25.8132 133.285 25.7981C133.379 25.7792 133.455 25.7641 133.512 25.7528L133.783 26.9537C133.693 26.9877 133.566 27.0217 133.404 27.0557C133.242 27.0934 133.036 27.1123 132.786 27.1123C132.409 27.1123 132.039 27.0311 131.676 26.8687C131.317 26.7063 131.019 26.459 130.781 26.1267C130.547 25.7943 130.43 25.3752 130.43 24.8691V16.2135ZM135.636 26.999V18.2981H136.927V19.6576H137.041C137.222 19.1931 137.515 18.8325 137.919 18.5757C138.323 18.3151 138.808 18.1848 139.374 18.1848C139.948 18.1848 140.426 18.3151 140.808 18.5757C141.193 18.8325 141.493 19.1931 141.708 19.6576H141.799C142.022 19.2082 142.356 18.8514 142.802 18.587C143.247 18.3189 143.782 18.1848 144.405 18.1848C145.183 18.1848 145.819 18.4284 146.314 18.9156C146.808 19.3989 147.056 20.1523 147.056 21.1758V26.999H145.719V21.1758C145.719 20.5338 145.543 20.0749 145.192 19.7992C144.841 19.5236 144.427 19.3857 143.952 19.3857C143.34 19.3857 142.866 19.5708 142.53 19.9409C142.194 20.3072 142.026 20.7717 142.026 21.3344V26.999H140.666V21.0398C140.666 20.5451 140.506 20.1467 140.185 19.8446C139.864 19.5387 139.45 19.3857 138.944 19.3857C138.597 19.3857 138.272 19.4782 137.97 19.6633C137.671 19.8483 137.43 20.1051 137.245 20.4337C137.063 20.7585 136.973 21.1342 136.973 21.561V26.999H135.636ZM150.837 15.3978V26.999H149.5V15.3978H150.837Z" fill="black"/>
<g filter="url(#filter0_d_2051_1870)">
<circle cx="22.0088" cy="22.0078" r="18.79" fill="white"/>
</g>
<path d="M16.1195 12.3162L20.8086 12.3142L22.5616 12.3135C24.1462 12.3126 25.2767 12.3681 26.7015 13.1835C27.2336 13.484 27.7224 13.8553 28.1546 14.2873C29.3444 15.4695 29.8712 16.9557 29.8982 18.6106C29.9029 18.8935 29.863 19.1545 29.8392 19.4317C29.5801 22.453 27.5654 24.3953 24.6648 24.9746C24.1973 25.0666 24.0178 25.0648 23.5446 25.0642C22.2718 25.0644 21.0194 24.7449 19.9023 24.1351C19.6717 24.01 19.4474 23.8738 19.2301 23.7268C19.1046 23.6438 18.8959 23.4891 18.7669 23.4366C19.2355 24.2824 19.7873 25.1868 20.2827 26.0236L22.26 29.3944L23.0756 30.7804C23.2122 31.0113 23.4859 31.4519 23.5769 31.6864C22.6973 31.717 21.7086 31.6956 20.8218 31.6956L16.1191 31.6954L16.1195 12.3162Z" fill="black"/>
<path d="M18.7671 23.4366C17.9036 22.349 17.3826 21.2237 18.6951 20.2046C19.7163 19.4117 20.9885 19.0725 22.2334 18.8218C22.5494 18.7598 22.9834 18.7233 23.2593 18.6621C23.5702 20.1534 23.8989 21.641 24.2451 23.1245L24.5522 24.4792C24.5787 24.6002 24.6494 24.8634 24.6651 24.9746C24.1976 25.0665 24.0181 25.0647 23.5448 25.0641C22.2721 25.0643 21.0197 24.7448 19.9025 24.135C19.672 24.0099 19.4476 23.8737 19.2303 23.7267C19.1049 23.6437 18.8962 23.489 18.7671 23.4366Z" fill="#F15424"/>
<rect x="3.2207" y="54.375" width="136.303" height="37.582" rx="18.791" fill="white"/>
<path d="M61.8301 72.8635C61.8301 74.087 61.6092 75.1444 61.1673 76.0357C60.7255 76.9269 60.1194 77.6142 59.349 78.0976C58.5786 78.581 57.6987 78.8227 56.7092 78.8227C55.7198 78.8227 54.8399 78.581 54.0695 78.0976C53.2991 77.6142 52.693 76.9269 52.2511 76.0357C51.8093 75.1444 51.5884 74.087 51.5884 72.8635C51.5884 71.6399 51.8093 70.5825 52.2511 69.6912C52.693 68.8 53.2991 68.1127 54.0695 67.6293C54.8399 67.1459 55.7198 66.9042 56.7092 66.9042C57.6987 66.9042 58.5786 67.1459 59.349 67.6293C60.1194 68.1127 60.7255 68.8 61.1673 69.6912C61.6092 70.5825 61.8301 71.6399 61.8301 72.8635ZM60.4706 72.8635C60.4706 71.8589 60.3025 71.0111 59.9664 70.32C59.6341 69.6289 59.1828 69.1059 58.6126 68.7509C58.0461 68.3959 57.4116 68.2184 56.7092 68.2184C56.0068 68.2184 55.3705 68.3959 54.8002 68.7509C54.2338 69.1059 53.7825 69.6289 53.4464 70.32C53.1141 71.0111 52.9479 71.8589 52.9479 72.8635C52.9479 73.868 53.1141 74.7158 53.4464 75.4069C53.7825 76.098 54.2338 76.621 54.8002 76.976C55.3705 77.331 56.0068 77.5085 56.7092 77.5085C57.4116 77.5085 58.0461 77.331 58.6126 76.976C59.1828 76.621 59.6341 76.098 59.9664 75.4069C60.3025 74.7158 60.4706 73.868 60.4706 72.8635ZM65.3478 73.4299V78.6641H64.011V69.9632H65.3025V71.3227H65.4158C65.6197 70.8808 65.9294 70.5258 66.3448 70.2577C66.7602 69.9858 67.2965 69.8499 67.9536 69.8499C68.5427 69.8499 69.0582 69.9707 69.5 70.2124C69.9419 70.4503 70.2855 70.8129 70.531 71.3C70.7765 71.7834 70.8992 72.3952 70.8992 73.1354V78.6641H69.5623V73.226C69.5623 72.5425 69.3848 72.01 69.0299 71.6286C68.6749 71.2434 68.1877 71.0508 67.5684 71.0508C67.1416 71.0508 66.7602 71.1433 66.4241 71.3283C66.0918 71.5134 65.8293 71.7834 65.6367 72.1384C65.4441 72.4934 65.3478 72.9239 65.3478 73.4299ZM74.6789 67.0628V78.6641H73.3421V67.0628H74.6789ZM77.1275 78.6641V69.9632H78.4643V78.6641H77.1275ZM77.8072 68.513C77.5467 68.513 77.322 68.4243 77.1331 68.2468C76.9481 68.0693 76.8556 67.8559 76.8556 67.6067C76.8556 67.3574 76.9481 67.144 77.1331 66.9666C77.322 66.7891 77.5467 66.7003 77.8072 66.7003C78.0678 66.7003 78.2906 66.7891 78.4757 66.9666C78.6645 67.144 78.7589 67.3574 78.7589 67.6067C78.7589 67.8559 78.6645 68.0693 78.4757 68.2468C78.2906 68.4243 78.0678 68.513 77.8072 68.513ZM82.2497 73.4299V78.6641H80.9129V69.9632H82.2044V71.3227H82.3177C82.5216 70.8808 82.8313 70.5258 83.2467 70.2577C83.6621 69.9858 84.1984 69.8499 84.8555 69.8499C85.4446 69.8499 85.9601 69.9707 86.4019 70.2124C86.8438 70.4503 87.1874 70.8129 87.4329 71.3C87.6784 71.7834 87.8011 72.3952 87.8011 73.1354V78.6641H86.4642V73.226C86.4642 72.5425 86.2868 72.01 85.9318 71.6286C85.5768 71.2434 85.0896 71.0508 84.4703 71.0508C84.0435 71.0508 83.6621 71.1433 83.326 71.3283C82.9937 71.5134 82.7312 71.7834 82.5386 72.1384C82.346 72.4934 82.2497 72.9239 82.2497 73.4299ZM93.892 78.8453C93.0537 78.8453 92.3305 78.6603 91.7225 78.2902C91.1182 77.9163 90.6518 77.3952 90.3233 76.7268C89.9985 76.0545 89.8361 75.2728 89.8361 74.3816C89.8361 73.4903 89.9985 72.7048 90.3233 72.0251C90.6518 71.3416 91.1088 70.8091 91.6941 70.4277C92.2833 70.0425 92.9706 69.8499 93.7561 69.8499C94.2092 69.8499 94.6568 69.9254 95.0986 70.0764C95.5404 70.2275 95.9426 70.473 96.3052 70.8129C96.6677 71.149 96.9566 71.5946 97.1719 72.1497C97.3871 72.7048 97.4947 73.3884 97.4947 74.2003V74.7668H90.7878V73.6112H96.1352C96.1352 73.1203 96.037 72.6822 95.8407 72.297C95.6481 71.9118 95.3724 71.6078 95.0136 71.385C94.6586 71.1622 94.2395 71.0508 93.7561 71.0508C93.2236 71.0508 92.7629 71.1829 92.3739 71.4473C91.9887 71.7079 91.6922 72.0477 91.4845 72.4669C91.2768 72.8861 91.173 73.3355 91.173 73.8151V74.5855C91.173 75.2426 91.2863 75.7996 91.5129 76.2566C91.7432 76.7098 92.0623 77.0553 92.4702 77.2932C92.8781 77.5274 93.352 77.6444 93.892 77.6444C94.2432 77.6444 94.5605 77.5953 94.8437 77.4971C95.1307 77.3952 95.3781 77.2441 95.5858 77.044C95.7935 76.84 95.954 76.587 96.0673 76.2849L97.3588 76.6474C97.2228 77.0855 96.9944 77.4707 96.6734 77.803C96.3524 78.1316 95.9558 78.3884 95.4838 78.5734C95.0117 78.7547 94.4811 78.8453 93.892 78.8453Z" fill="#F05423"/>
<circle opacity="0.54" cx="22.3755" cy="73.6567" r="10.979" fill="#F6CBBD"/>
<circle cx="22.3752" cy="73.6565" r="5.00804" fill="#F05423"/>
<defs>
<filter id="filter0_d_2051_1870" x="0.000498056" y="-0.000478506" width="44.0166" height="44.0166" filterUnits="userSpaceOnUse" color-interpolation-filters="sRGB">
<feFlood flood-opacity="0" result="BackgroundImageFix"/>
<feColorMatrix in="SourceAlpha" type="matrix" values="0 0 0 0 0 0 0 0 0 0 0 0 0 0 0 0 0 0 127 0" result="hardAlpha"/>
<feOffset/>
<feGaussianBlur stdDeviation="1.60913"/>
<feComposite in2="hardAlpha" operator="out"/>
<feColorMatrix type="matrix" values="0 0 0 0 0 0 0 0 0 0 0 0 0 0 0 0 0 0 0.25 0"/>
<feBlend mode="normal" in2="BackgroundImageFix" result="effect1_dropShadow_2051_1870"/>
<feBlend mode="normal" in="SourceGraphic" in2="effect1_dropShadow_2051_1870" result="shape"/>
</filter>
</defs>
</svg>
